REM DIRINDEX 1\5,1\2\6,1\2\7,1\3\8,1\3\9,1\4\10,1\4\11,1\4\12
REM DIRNAME cjc026,folder01,folder02,folder03,folder04,folder05,folder06,folder07,folder08,folder09,folder10,folder11
TITLE ""
FILE "EJE_DB3000_5th_6C_35.mp3" MP3
  TRACK 01 AUDIO
    TITLE "0:"
    INDEX 01 00:00:00
  TRACK 02 AUDIO
    TITLE "10:cjc026_11505"
    INDEX 01 00:00:08
  TRACK 03 AUDIO
    TITLE "0:"
    INDEX 01 00:01:22
  TRACK 04 AUDIO
    TITLE "11:cjc026_11506"
    INDEX 01 00:01:60
  TRACK 05 AUDIO
    TITLE "0:"
    INDEX 01 00:03:69
  TRACK 06 AUDIO
    TITLE "12:cjc026_11507"
    INDEX 01 00:04:32
  TRACK 07 AUDIO
    TITLE "0:"
    INDEX 01 00:05:43
  TRACK 08 AUDIO
    TITLE "10:cjc026_11508"
    INDEX 01 00:06:06
  TRACK 09 AUDIO
    TITLE "0:"
    INDEX 01 00:07:28
  TRACK 10 AUDIO
    TITLE "11:cjc026_11509"
    INDEX 01 00:07:66
  TRACK 11 AUDIO
    TITLE "0:"
    INDEX 01 00:10:03
  TRACK 12 AUDIO
    TITLE "12:cjc026_11510"
    INDEX 01 00:10:38
  TRACK 13 AUDIO
    TITLE "0:"
    INDEX 01 00:11:60
  TRACK 14 AUDIO
    TITLE "10:cjc026_11511"
    INDEX 01 00:12:20
  TRACK 15 AUDIO
    TITLE "0:"
    INDEX 01 00:13:51
  TRACK 16 AUDIO
    TITLE "11:cjc026_11512"
    INDEX 01 00:14:08
  TRACK 17 AUDIO
    TITLE "0:"
    INDEX 01 00:15:38
  TRACK 18 AUDIO
    TITLE "12:cjc026_11513"
    INDEX 01 00:15:71
  TRACK 19 AUDIO
    TITLE "0:"
    INDEX 01 00:17:26
  TRACK 20 AUDIO
    TITLE "10:cjc026_11514"
    INDEX 01 00:17:61
  TRACK 21 AUDIO
    TITLE "0:"
    INDEX 01 00:19:00
  TRACK 22 AUDIO
    TITLE "11:cjc026_11515"
    INDEX 01 00:19:38
  TRACK 23 AUDIO
    TITLE "0:"
    INDEX 01 00:21:01
  TRACK 24 AUDIO
    TITLE "12:cjc026_11516"
    INDEX 01 00:21:39
  TRACK 25 AUDIO
    TITLE "0:"
    INDEX 01 00:22:56
  TRACK 26 AUDIO
    TITLE "10:cjc026_11517"
    INDEX 01 00:23:16
  TRACK 27 AUDIO
    TITLE "0:"
    INDEX 01 00:24:25
  TRACK 28 AUDIO
    TITLE "11:cjc026_11518"
    INDEX 01 00:24:60
  TRACK 29 AUDIO
    TITLE "0:"
    INDEX 01 00:26:23
  TRACK 30 AUDIO
    TITLE "12:cjc026_11519"
    INDEX 01 00:26:58
  TRACK 31 AUDIO
    TITLE "0:"
    INDEX 01 00:27:67
  TRACK 32 AUDIO
    TITLE "10:cjc026_11520"
    INDEX 01 00:28:27
  TRACK 33 AUDIO
    TITLE "0:"
    INDEX 01 00:29:55
  TRACK 34 AUDIO
    TITLE "11:cjc026_11521"
    INDEX 01 00:30:09
  TRACK 35 AUDIO
    TITLE "0:"
    INDEX 01 00:31:40
  TRACK 36 AUDIO
    TITLE "12:cjc026_11522"
    INDEX 01 00:31:72
  TRACK 37 AUDIO
    TITLE "0:"
    INDEX 01 00:33:25
  TRACK 38 AUDIO
    TITLE "10:cjc026_11523"
    INDEX 01 00:33:60
  TRACK 39 AUDIO
    TITLE "0:"
    INDEX 01 00:35:04
  TRACK 40 AUDIO
    TITLE "11:cjc026_11524"
    INDEX 01 00:35:39
  TRACK 41 AUDIO
    TITLE "0:"
    INDEX 01 00:36:67
  TRACK 42 AUDIO
    TITLE "12:cjc026_11525"
    INDEX 01 00:37:27
  TRACK 43 AUDIO
    TITLE "0:"
    INDEX 01 00:38:47
  TRACK 44 AUDIO
    TITLE "10:cjc026_11526"
    INDEX 01 00:39:07
  TRACK 45 AUDIO
    TITLE "0:"
    INDEX 01 00:40:24
  TRACK 46 AUDIO
    TITLE "11:cjc026_11527"
    INDEX 01 00:40:59
  TRACK 47 AUDIO
    TITLE "0:"
    INDEX 01 00:42:00
  TRACK 48 AUDIO
    TITLE "12:cjc026_11528"
    INDEX 01 00:42:36
  TRACK 49 AUDIO
    TITLE "0:"
    INDEX 01 00:43:52
  TRACK 50 AUDIO
    TITLE "10:cjc026_11529"
    INDEX 01 00:44:12
  TRACK 51 AUDIO
    TITLE "0:"
    INDEX 01 00:45:35
  TRACK 52 AUDIO
    TITLE "11:cjc026_11530"
    INDEX 01 00:45:70
  TRACK 53 AUDIO
    TITLE "0:"
    INDEX 01 00:47:25
  TRACK 54 AUDIO
    TITLE "12:cjc026_11531"
    INDEX 01 00:47:60
  TRACK 55 AUDIO
    TITLE "0:"
    INDEX 01 00:49:07
  TRACK 56 AUDIO
    TITLE "10:cjc026_11532"
    INDEX 01 00:49:42
  TRACK 57 AUDIO
    TITLE "0:"
    INDEX 01 00:50:67
  TRACK 58 AUDIO
    TITLE "11:cjc026_11533"
    INDEX 01 00:51:27
  TRACK 59 AUDIO
    TITLE "0:"
    INDEX 01 00:52:63
  TRACK 60 AUDIO
    TITLE "12:cjc026_11534"
    INDEX 01 00:53:26
  TRACK 61 AUDIO
    TITLE "0:"
    INDEX 01 00:54:48
  TRACK 62 AUDIO
    TITLE "10:cjc026_11535"
    INDEX 01 00:55:08
  TRACK 63 AUDIO
    TITLE "0:"
    INDEX 01 00:56:22
  TRACK 64 AUDIO
    TITLE "11:cjc026_11536"
    INDEX 01 00:56:60
  TRACK 65 AUDIO
    TITLE "0:"
    INDEX 01 00:58:10
  TRACK 66 AUDIO
    TITLE "12:cjc026_11537"
    INDEX 01 00:58:48
  TRACK 67 AUDIO
    TITLE "0:"
    INDEX 01 00:59:62
  TRACK 68 AUDIO
    TITLE "10:cjc026_11538"
    INDEX 01 01:00:22
  TRACK 69 AUDIO
    TITLE "0:"
    INDEX 01 01:01:39
  TRACK 70 AUDIO
    TITLE "11:cjc026_11539"
    INDEX 01 01:01:74
  TRACK 71 AUDIO
    TITLE "0:"
    INDEX 01 01:03:27
  TRACK 72 AUDIO
    TITLE "12:cjc026_11540"
    INDEX 01 01:03:62
  TRACK 73 AUDIO
    TITLE "0:"
    INDEX 01 01:05:01
  TRACK 74 AUDIO
    TITLE "10:cjc026_11541"
    INDEX 01 01:05:39
  TRACK 75 AUDIO
    TITLE "0:"
    INDEX 01 01:06:50
  TRACK 76 AUDIO
    TITLE "11:cjc026_11542"
    INDEX 01 01:07:10
  TRACK 77 AUDIO
    TITLE "0:"
    INDEX 01 01:08:43
  TRACK 78 AUDIO
    TITLE "12:cjc026_11543"
    INDEX 01 01:09:03
  TRACK 79 AUDIO
    TITLE "0:"
    INDEX 01 01:10:15
